<?xml version="1.0" encoding="UTF-8"?>
<svg width="191px" height="158px" viewBox="0 0 191 158" version="1.1" xmlns="http://www.w3.org/2000/svg" xmlns:xlink="http://www.w3.org/1999/xlink">
    <!-- Generator: Sketch 57.1 (83088) - https://sketch.com -->
    <title>logo_white</title>
    <desc>Created with Sketch.</desc>
    <g id="Page-1" stroke="none" stroke-width="1" fill="none" fill-rule="evenodd">
        <g id="Logo_white_nbg" transform="translate(-154.000000, -173.000000)" fill="#F3F3F3">
            <g id="logo_white" transform="translate(154.000000, 171.000000)">
                <rect id="Rectangle-Copy-2" transform="translate(6.500000, 102.000000) rotate(-270.000000) translate(-6.500000, -102.000000) " x="-50" y="96" width="113" height="12" rx="6"></rect>
                <rect id="Rectangle-Copy-3" transform="translate(184.500000, 102.000000) rotate(-270.000000) translate(-184.500000, -102.000000) " x="128" y="96" width="113" height="12" rx="6"></rect>
                <rect id="Rectangle-Copy-11" transform="translate(62.181981, 77.750523) rotate(-225.000000) translate(-62.181981, -77.750523) " x="-19.3180195" y="71.750523" width="163" height="12" rx="6"></rect>
                <rect id="Rectangle-Copy-12" transform="translate(125.902020, 67.000000) rotate(-315.000000) translate(-125.902020, -67.000000) " x="37.4020203" y="61" width="177" height="12" rx="6"></rect>
                <rect id="Rectangle-Copy-14" transform="translate(125.902020, 95.000000) rotate(-315.000000) translate(-125.902020, -95.000000) " x="37.4020203" y="89" width="177" height="12" rx="6"></rect>
                <rect id="Rectangle-Copy-13" transform="translate(49.356079, 120.856079) rotate(-135.000000) translate(-49.356079, -120.856079) " x="9.35607871" y="114.856079" width="80" height="12" rx="6"></rect>
            </g>
        </g>
    </g>
</svg>